{
.appVersion = "3501";
.formatVersion = 3;
date = "2026-04-03 20:46:56 +0000";
familyName = "Console Sans Ext";
fontMaster = (
{
id = m01;
metricValues = (
{
over = 16;
pos = 900;
},
{
over = 16;
pos = 850;
},
{
over = 16;
pos = 500;
},
{
over = -16;
},
{
over = -16;
pos = -200;
},
{
}
);
name = Regular;
userData = {
GSCornerRadius = 200;
};
}
);
glyphs = (
{
glyphname = A;
lastChange = "2026-04-03 22:28:24 +0000";
layers = (
{
layerId = m01;
shapes = (
{
closed = 1;
nodes = (
(30,0,l),
(160,0,l),
(368,850,l),
(252,850,l)
);
},
{
closed = 1;
nodes = (
(304,850,l),
(511,0,l),
(640,0,l),
(417,850,l)
);
},
{
closed = 1;
nodes = (
(172,195,l),
(511,195,l),
(511,315,l),
(172,315,l)
);
}
);
width = 670;
}
);
unicode = 65;
},
{
glyphname = B;
lastChange = "2026-04-03 22:25:48 +0000";
layers = (
{
layerId = m01;
shapes = (
{
closed = 1;
nodes = (
(378,0,ls),
(516,0,o),
(616,105,o),
(616,239,cs),
(616,376,o),
(512,469,o),
(369,469,cs),
(135,469,l),
(135,369,l),
(354,369,ls),
(433,369,o),
(491,320,o),
(491,247,cs),
(491,176,o),
(437,120,o),
(363,120,cs),
(135,120,l),
(135,0,l)
);
},
{
closed = 1;
nodes = (
(100,0,l),
(225,0,l),
(225,850,l),
(100,850,l)
);
},
{
closed = 1;
nodes = (
(115,730,l),
(343,730,ls),
(417,730,o),
(471,687,o),
(471,618,cs),
(471,547,o),
(413,489,o),
(334,489,cs),
(115,489,l),
(115,389,l),
(349,389,ls),
(492,389,o),
(596,484,o),
(596,618,cs),
(596,750,o),
(496,850,o),
(358,850,cs),
(115,850,l)
);
}
);
width = 670;
}
);
unicode = 66;
},
{
glyphname = C;
lastChange = "2026-04-03 22:20:38 +0000";
layers = (
{
layerId = m01;
shapes = (
{
closed = 1;
nodes = (
(470,254,l),
(470,167,o),
(413,104,o),
(335,104,cs),
(257,104,o),
(200,167,o),
(200,254,cs),
(200,596,ls),
(200,683,o),
(257,746,o),
(335,746,cs),
(413,746,o),
(470,683,o),
(470,596,c),
(595,596,l),
(595,752,o),
(485,866,o),
(335,866,cs),
(185,866,o),
(75,753,o),
(75,598,cs),
(75,252,ls),
(75,97,o),
(185,-16,o),
(335,-16,cs),
(485,-16,o),
(595,98,o),
(595,254,c)
);
}
);
width = 670;
}
);
unicode = 67;
},
{
glyphname = D;
lastChange = "2026-04-03 22:26:12 +0000";
layers = (
{
layerId = m01;
shapes = (
{
closed = 1;
nodes = (
(330,0,ls),
(492,0,o),
(610,122,o),
(610,289,cs),
(610,561,ls),
(610,728,o),
(492,850,o),
(330,850,cs),
(135,850,l),
(135,730,l),
(330,730,ls),
(420,730,o),
(485,658,o),
(485,558,cs),
(485,292,ls),
(485,192,o),
(420,120,o),
(330,120,cs),
(135,120,l),
(135,0,l)
);
},
{
closed = 1;
nodes = (
(100,0,l),
(225,0,l),
(225,850,l),
(100,850,l)
);
}
);
width = 670;
}
);
unicode = 68;
},
{
glyphname = E;
lastChange = "2026-04-03 22:27:46 +0000";
layers = (
{
layerId = m01;
shapes = (
{
closed = 1;
nodes = (
(100,850,l),
(100,0,l),
(225,0,l),
(225,850,l)
);
},
{
closed = 1;
nodes = (
(140,850,l),
(140,730,l),
(590,730,l),
(590,850,l)
);
},
{
closed = 1;
nodes = (
(140,120,l),
(140,0,l),
(590,0,l),
(590,120,l)
);
},
{
closed = 1;
nodes = (
(140,495,l),
(140,375,l),
(540,375,l),
(540,495,l)
);
}
);
width = 670;
}
);
unicode = 69;
},
{
glyphname = F;
lastChange = "2026-04-03 22:27:53 +0000";
layers = (
{
layerId = m01;
shapes = (
{
closed = 1;
nodes = (
(100,850,l),
(100,0,l),
(225,0,l),
(225,850,l)
);
},
{
closed = 1;
nodes = (
(140,850,l),
(140,730,l),
(590,730,l),
(590,850,l)
);
},
{
closed = 1;
nodes = (
(140,475,l),
(140,355,l),
(540,355,l),
(540,475,l)
);
}
);
width = 670;
}
);
unicode = 70;
},
{
glyphname = G;
lastChange = "2026-04-03 21:47:29 +0000";
layers = (
{
layerId = m01;
shapes = (
{
closed = 1;
nodes = (
(400,285,l),
(300,285,l),
(300,154,ls),
(300,111,o),
(269,79,o),
(227,79,cs),
(185,79,o),
(155,111,o),
(155,154,cs),
(155,346,ls),
(155,389,o),
(185,421,o),
(227,421,cs),
(269,421,o),
(300,389,o),
(300,346,c),
(400,346,l),
(400,444,o),
(327,516,o),
(227,516,cs),
(127,516,o),
(55,445,o),
(55,347,cs),
(55,152,ls),
(55,55,o),
(127,-16,o),
(227,-16,cs),
(327,-16,o),
(400,56,o),
(400,154,cs)
);
},
{
closed = 1;
nodes = (
(218,190,l),
(324,190,l),
(324,285,l),
(218,285,l)
);
}
);
width = 455;
}
);
unicode = (71,103);
},
{
glyphname = H;
lastChange = "2026-04-03 21:47:32 +0000";
layers = (
{
layerId = m01;
shapes = (
{
closed = 1;
nodes = (
(60,500,l),
(60,0,l),
(160,0,l),
(160,500,l)
);
},
{
closed = 1;
nodes = (
(116,200,l),
(329,200,l),
(329,295,l),
(116,295,l)
);
},
{
closed = 1;
nodes = (
(311,500,l),
(311,0,l),
(411,0,l),
(411,500,l)
);
}
);
width = 471;
}
);
unicode = (72,104);
},
{
glyphname = I;
lastChange = "2026-04-03 21:47:35 +0000";
layers = (
{
layerId = m01;
shapes = (
{
closed = 1;
nodes = (
(60,500,l),
(60,0,l),
(160,0,l),
(160,500,l)
);
}
);
width = 220;
}
);
unicode = (73,105);
},
{
glyphname = J;
lastChange = "2026-04-03 21:47:38 +0000";
layers = (
{
layerId = m01;
shapes = (
{
closed = 1;
nodes = (
(225,134,ls),
(225,102,o),
(203,79,o),
(173,79,cs),
(143,79,o),
(120,102,o),
(120,134,c),
(20,134,l),
(20,48,o),
(85,-16,o),
(173,-16,cs),
(261,-16,o),
(325,47,o),
(325,132,cs),
(325,500,l),
(225,500,l)
);
}
);
width = 380;
}
);
unicode = (74,106);
},
{
glyphname = K;
lastChange = "2026-04-03 21:47:41 +0000";
layers = (
{
layerId = m01;
shapes = (
{
closed = 1;
nodes = (
(60,500,l),
(60,0,l),
(160,0,l),
(160,500,l)
);
},
{
closed = 1;
nodes = (
(438,500,l),
(314,500,l),
(136,260,l),
(324,0,l),
(450,0,l),
(229,297,l),
(229,223,l)
);
}
);
width = 460;
}
);
unicode = (75,107);
},
{
glyphname = L;
lastChange = "2026-04-03 21:47:44 +0000";
layers = (
{
layerId = m01;
shapes = (
{
closed = 1;
nodes = (
(60,500,l),
(60,0,l),
(160,0,l),
(160,500,l)
);
},
{
closed = 1;
nodes = (
(116,0,l),
(319,0,l),
(319,95,l),
(116,95,l)
);
}
);
width = 340;
}
);
unicode = (76,108);
},
{
glyphname = M;
lastChange = "2026-04-03 21:47:47 +0000";
layers = (
{
layerId = m01;
shapes = (
{
closed = 1;
nodes = (
(70,500,l),
(70,0,l),
(170,0,l),
(170,500,l)
);
},
{
closed = 1;
nodes = (
(440,500,l),
(440,0,l),
(540,0,l),
(540,500,l)
);
},
{
closed = 1;
nodes = (
(522,449,l),
(440,500,l),
(305,268,l),
(170,500,l),
(88,449,l),
(305,79,l)
);
}
);
width = 610;
}
);
unicode = (77,109);
},
{
glyphname = N;
lastChange = "2026-04-03 21:47:50 +0000";
layers = (
{
layerId = m01;
shapes = (
{
closed = 1;
nodes = (
(60,500,l),
(60,0,l),
(160,0,l),
(160,500,l)
);
},
{
closed = 1;
nodes = (
(331,500,l),
(331,0,l),
(431,0,l),
(431,500,l)
);
},
{
closed = 1;
nodes = (
(60,470,l),
(331,0,l),
(431,30,l),
(160,500,l)
);
}
);
width = 491;
}
);
unicode = (78,110);
},
{
glyphname = O;
lastChange = "2026-04-03 21:47:54 +0000";
layers = (
{
layerId = m01;
shapes = (
{
closed = 1;
nodes = (
(55,152,ls),
(55,55,o),
(128,-16,o),
(227,-16,cs),
(327,-16,o),
(400,55,o),
(400,152,cs),
(400,347,ls),
(400,445,o),
(326,516,o),
(227,516,cs),
(128,516,o),
(55,445,o),
(55,347,cs)
);
},
{
closed = 1;
nodes = (
(155,346,ls),
(155,390,o),
(186,421,o),
(227,421,cs),
(269,421,o),
(300,390,o),
(300,346,cs),
(300,154,ls),
(300,110,o),
(269,79,o),
(227,79,cs),
(186,79,o),
(155,110,o),
(155,154,cs)
);
}
);
width = 455;
}
);
unicode = (79,111);
},
{
glyphname = P;
lastChange = "2026-04-03 21:47:58 +0000";
layers = (
{
layerId = m01;
shapes = (
{
closed = 1;
nodes = (
(70,500,l),
(70,0,l),
(170,0,l),
(170,500,l)
);
},
{
closed = 1;
nodes = (
(116,177,l),
(255,177,ls),
(356,177,o),
(425,243,o),
(425,339,cs),
(425,434,o),
(356,500,o),
(255,500,cs),
(116,500,l),
(116,405,l),
(260,405,ls),
(299,405,o),
(325,378,o),
(325,339,cs),
(325,299,o),
(299,272,o),
(260,272,cs),
(116,272,l)
);
}
);
width = 455;
}
);
unicode = (80,112);
},
{
glyphname = Q;
lastChange = "2026-04-03 21:48:01 +0000";
layers = (
{
layerId = m01;
shapes = (
{
closed = 1;
nodes = (
(55,212,ls),
(55,115,o),
(128,44,o),
(227,44,cs),
(327,44,o),
(400,115,o),
(400,212,cs),
(400,347,ls),
(400,445,o),
(326,516,o),
(227,516,cs),
(128,516,o),
(55,445,o),
(55,347,cs)
);
},
{
closed = 1;
nodes = (
(155,346,ls),
(155,390,o),
(186,421,o),
(227,421,cs),
(269,421,o),
(300,390,o),
(300,346,cs),
(300,214,ls),
(300,170,o),
(269,139,o),
(227,139,cs),
(186,139,o),
(155,170,o),
(155,214,cs)
);
},
{
closed = 1;
nodes = (
(153,105,l),
(262,-28,l),
(391,-28,l),
(282,105,l)
);
}
);
width = 455;
}
);
unicode = (81,113);
},
{
glyphname = R;
lastChange = "2026-04-03 21:48:04 +0000";
layers = (
{
layerId = m01;
shapes = (
{
closed = 1;
nodes = (
(70,500,l),
(70,0,l),
(170,0,l),
(170,500,l)
);
},
{
closed = 1;
nodes = (
(116,197,l),
(265,197,ls),
(360,197,o),
(425,259,o),
(425,349,cs),
(425,438,o),
(360,500,o),
(265,500,cs),
(116,500,l),
(116,405,l),
(270,405,ls),
(303,405,o),
(325,382,o),
(325,349,cs),
(325,315,o),
(303,292,o),
(270,292,cs),
(116,292,l)
);
},
{
closed = 1;
nodes = (
(157,251,l),
(329,0,l),
(448,0,l),
(276,251,l)
);
}
);
width = 455;
}
);
unicode = (82,114);
},
{
glyphname = S;
lastChange = "2026-04-03 21:48:07 +0000";
layers = (
{
layerId = m01;
shapes = (
{
closed = 1;
nodes = (
(400,322,o),
(165,267,o),
(165,363,cs),
(165,394,o),
(190,421,o),
(224,421,cs),
(260,421,o),
(290,391,o),
(290,353,c),
(390,353,l),
(390,445,o),
(319,516,o),
(224,516,cs),
(135,516,o),
(64,453,o),
(64,363,cs),
(64,188,o),
(300,245,o),
(300,144,cs),
(300,108,o),
(271,79,o),
(231,79,cs),
(189,79,o),
(155,112,o),
(155,154,c),
(55,154,l),
(55,58,o),
(131,-16,o),
(231,-16,cs),
(325,-16,o),
(400,49,o),
(400,144,cs)
);
}
);
width = 455;
}
);
unicode = (83,115);
},
{
glyphname = T;
lastChange = "2026-04-03 21:48:09 +0000";
layers = (
{
layerId = m01;
shapes = (
{
closed = 1;
nodes = (
(20,405,l),
(350,405,l),
(350,500,l),
(20,500,l)
);
},
{
closed = 1;
nodes = (
(135,500,l),
(135,0,l),
(235,0,l),
(235,500,l)
);
}
);
width = 370;
}
);
unicode = (84,116);
},
{
glyphname = U;
lastChange = "2026-04-03 21:48:12 +0000";
layers = (
{
layerId = m01;
shapes = (
{
closed = 1;
nodes = (
(300,500,l),
(300,154,ls),
(300,110,o),
(269,79,o),
(227,79,cs),
(186,79,o),
(155,110,o),
(155,154,cs),
(155,500,l),
(55,500,l),
(55,152,ls),
(55,55,o),
(128,-16,o),
(227,-16,cs),
(327,-16,o),
(400,55,o),
(400,152,cs),
(400,500,l)
);
}
);
width = 455;
}
);
unicode = (85,117);
},
{
glyphname = V;
lastChange = "2026-04-03 21:48:21 +0000";
layers = (
{
layerId = m01;
shapes = (
{
closed = 1;
nodes = (
(291,0,l),
(135,500,l),
(30,500,l),
(194,0,l)
);
},
{
closed = 1;
nodes = (
(470,500,l),
(365,500,l),
(209,0,l),
(306,0,l)
);
}
);
width = 500;
}
);
unicode = (86,118);
},
{
glyphname = W;
lastChange = "2026-04-03 21:48:23 +0000";
layers = (
{
layerId = m01;
shapes = (
{
closed = 1;
nodes = (
(246,0,l),
(135,500,l),
(30,500,l),
(149,0,l)
);
},
{
closed = 1;
nodes = (
(630,500,l),
(525,500,l),
(414,0,l),
(511,0,l)
);
},
{
closed = 1;
nodes = (
(284,500,l),
(164,51,l),
(246,0,l),
(330,304,l),
(414,0,l),
(496,51,l),
(376,500,l)
);
}
);
width = 660;
}
);
unicode = (87,119);
},
{
glyphname = X;
lastChange = "2026-04-03 21:48:26 +0000";
layers = (
{
layerId = m01;
shapes = (
{
closed = 1;
nodes = (
(309,500,l),
(20,0,l),
(131,0,l),
(420,500,l)
);
},
{
closed = 1;
nodes = (
(319,0,l),
(430,0,l),
(141,500,l),
(30,500,l)
);
}
);
width = 450;
}
);
unicode = (88,120);
},
{
glyphname = Y;
lastChange = "2026-04-03 21:48:29 +0000";
layers = (
{
layerId = m01;
shapes = (
{
closed = 1;
nodes = (
(256,264,l),
(131,500,l),
(20,500,l),
(204,161,l)
);
},
{
closed = 1;
nodes = (
(204,161,l),
(256,264,l)
);
},
{
closed = 1;
nodes = (
(450,500,l),
(339,500,l),
(214,264,l),
(266,161,l)
);
},
{
closed = 1;
nodes = (
(185,284,l),
(185,0,l),
(285,0,l),
(285,284,l)
);
}
);
width = 470;
}
);
unicode = (89,121);
},
{
glyphname = Z;
lastChange = "2026-04-03 21:48:32 +0000";
layers = (
{
layerId = m01;
shapes = (
{
closed = 1;
nodes = (
(270,435,l),
(50,95,l),
(150,67,l),
(370,405,l)
);
},
{
closed = 1;
nodes = (
(50,405,l),
(370,405,l),
(370,500,l),
(50,500,l)
);
},
{
closed = 1;
nodes = (
(50,0,l),
(370,0,l),
(370,95,l),
(50,95,l)
);
}
);
width = 420;
}
);
unicode = (90,122);
},
{
glyphname = a;
lastChange = "2026-04-03 22:19:02 +0000";
layers = (
{
layerId = m01;
shapes = (
{
closed = 1;
nodes = (
(30,0,l),
(135,0,l),
(281,500,l),
(184,500,l)
);
},
{
closed = 1;
nodes = (
(219,500,l),
(365,0,l),
(470,0,l),
(316,500,l)
);
},
{
closed = 1;
nodes = (
(116,97,l),
(377,97,l),
(377,192,l),
(116,192,l)
);
}
);
width = 500;
}
);
unicode = 97;
},
{
glyphname = b;
lastChange = "2026-04-03 22:19:04 +0000";
layers = (
{
layerId = m01;
shapes = (
{
closed = 1;
nodes = (
(170,500,l),
(70,500,l),
(70,0,l),
(170,0,l)
);
},
{
closed = 1;
nodes = (
(116,231,l),
(243,231,ls),
(335,231,o),
(399,279,o),
(399,359,cs),
(399,439,o),
(335,500,o),
(243,500,cs),
(116,500,l),
(116,405,l),
(248,405,ls),
(278,405,o),
(299,388,o),
(299,359,cs),
(299,330,o),
(278,306,o),
(248,306,cs),
(116,306,l)
);
},
{
closed = 1;
nodes = (
(248,212,ls),
(285,212,o),
(310,186,o),
(310,151,cs),
(310,117,o),
(285,95,o),
(248,95,cs),
(116,95,l),
(116,0,l),
(243,0,ls),
(342,0,o),
(410,69,o),
(410,151,cs),
(410,234,o),
(342,277,o),
(243,277,cs),
(116,277,l),
(116,212,l)
);
}
);
width = 450;
}
);
unicode = 98;
},
{
glyphname = c;
lastChange = "2026-04-03 22:19:05 +0000";
layers = (
{
layerId = m01;
shapes = (
{
closed = 1;
nodes = (
(300,154,l),
(300,111,o),
(269,79,o),
(227,79,cs),
(185,79,o),
(155,111,o),
(155,154,cs),
(155,346,ls),
(155,389,o),
(185,421,o),
(227,421,cs),
(269,421,o),
(300,389,o),
(300,346,c),
(400,346,l),
(400,444,o),
(327,516,o),
(227,516,cs),
(127,516,o),
(55,445,o),
(55,347,cs),
(55,152,ls),
(55,55,o),
(127,-16,o),
(227,-16,cs),
(327,-16,o),
(400,56,o),
(400,154,c)
);
}
);
width = 455;
}
);
unicode = 99;
},
{
glyphname = d;
lastChange = "2026-04-03 22:19:06 +0000";
layers = (
{
layerId = m01;
shapes = (
{
closed = 1;
nodes = (
(213,0,ls),
(313,0,o),
(385,71,o),
(385,168,cs),
(385,331,ls),
(385,429,o),
(313,500,o),
(213,500,cs),
(130,500,l),
(130,405,l),
(213,405,ls),
(255,405,o),
(285,373,o),
(285,330,cs),
(285,170,ls),
(285,127,o),
(255,95,o),
(213,95,cs),
(130,95,l),
(130,0,l)
);
},
{
closed = 1;
nodes = (
(60,0,l),
(160,0,l),
(160,500,l),
(60,500,l)
);
}
);
width = 440;
}
);
unicode = 100;
},
{
glyphname = e;
lastChange = "2026-04-03 22:19:07 +0000";
layers = (
{
layerId = m01;
shapes = (
{
closed = 1;
nodes = (
(60,500,l),
(60,0,l),
(160,0,l),
(160,500,l)
);
},
{
closed = 1;
nodes = (
(116,200,l),
(300,200,l),
(300,295,l),
(116,295,l)
);
},
{
closed = 1;
nodes = (
(116,405,l),
(330,405,l),
(330,500,l),
(116,500,l)
);
},
{
closed = 1;
nodes = (
(116,0,l),
(330,0,l),
(330,95,l),
(116,95,l)
);
}
);
width = 370;
}
);
unicode = 101;
},
{
glyphname = f;
lastChange = "2026-04-03 22:19:10 +0000";
layers = (
{
layerId = m01;
shapes = (
{
closed = 1;
nodes = (
(60,500,l),
(60,0,l),
(160,0,l),
(160,500,l)
);
},
{
closed = 1;
nodes = (
(116,200,l),
(300,200,l),
(300,295,l),
(116,295,l)
);
},
{
closed = 1;
nodes = (
(116,405,l),
(330,405,l),
(330,500,l),
(116,500,l)
);
}
);
width = 360;
}
);
unicode = 102;
},
{
glyphname = zero;
lastChange = "2026-04-03 21:13:40 +0000";
layers = (
{
layerId = m01;
shapes = (
{
closed = 1;
nodes = (
(75,252,ls),
(75,97,o),
(185,-16,o),
(335,-16,cs),
(485,-16,o),
(595,97,o),
(595,252,cs),
(595,598,ls),
(595,753,o),
(485,866,o),
(335,866,cs),
(185,866,o),
(75,753,o),
(75,598,cs)
);
},
{
closed = 1;
nodes = (
(200,596,ls),
(200,683,o),
(257,746,o),
(335,746,cs),
(413,746,o),
(470,683,o),
(470,596,cs),
(470,254,ls),
(470,167,o),
(413,104,o),
(335,104,cs),
(257,104,o),
(200,167,o),
(200,254,cs)
);
}
);
width = 670;
}
);
unicode = 48;
},
{
glyphname = one;
lastChange = "2026-04-03 22:20:04 +0000";
layers = (
{
layerId = m01;
shapes = (
{
closed = 1;
nodes = (
(323,0,l),
(448,0,l),
(448,850,l),
(323,850,l)
);
},
{
closed = 1;
nodes = (
(144,730,l),
(408,730,l),
(408,850,l),
(204,850,l)
);
}
);
width = 670;
}
);
unicode = 49;
},
{
glyphname = two;
lastChange = "2026-04-03 21:13:44 +0000";
layers = (
{
layerId = m01;
shapes = (
{
closed = 1;
nodes = (
(195,596,l),
(195,681,o),
(258,746,o),
(335,746,cs),
(416,746,o),
(475,675,o),
(475,606,cs),
(475,557,o),
(445,499,o),
(406,452,cs),
(85,57,l),
(85,0,l),
(192,0,l),
(509,390,ls),
(560,453,o),
(600,529,o),
(600,606,cs),
(600,735,o),
(489,866,o),
(335,866,cs),
(189,866,o),
(70,748,o),
(70,596,c)
);
},
{
closed = 1;
nodes = (
(164,0,l),
(591,0,l),
(591,120,l),
(224,120,l)
);
}
);
width = 670;
}
);
unicode = 50;
},
{
glyphname = three;
lastChange = "2026-04-03 21:13:47 +0000";
layers = (
{
layerId = m01;
shapes = (
{
closed = 1;
nodes = (
(275,534,l),
(275,414,l),
(315,414,ls),
(411,414,o),
(485,346,o),
(485,259,cs),
(485,172,o),
(420,104,o),
(335,104,cs),
(250,104,o),
(185,172,o),
(185,259,c),
(60,259,l),
(60,104,o),
(180,-16,o),
(335,-16,cs),
(490,-16,o),
(610,104,o),
(610,259,cs),
(610,414,o),
(486,534,o),
(325,534,c)
);
},
{
closed = 1;
nodes = (
(526,850,l),
(79,850,l),
(79,730,l),
(466,730,l)
);
},
{
closed = 1;
nodes = (
(209,414,l),
(321,414,l),
(586,797,l),
(586,850,l),
(481,850,l),
(209,454,l)
);
}
);
width = 670;
}
);
unicode = 51;
},
{
glyphname = four;
lastChange = "2026-04-03 21:13:53 +0000";
layers = (
{
layerId = m01;
shapes = (
{
closed = 1;
nodes = (
(84,210,l),
(640,210,l),
(640,330,l),
(144,330,l)
);
},
{
closed = 1;
nodes = (
(403,0,l),
(528,0,l),
(528,850,l),
(403,850,l)
);
},
{
closed = 1;
nodes = (
(30,210,l),
(123,210,l),
(502,850,l),
(374,850,l),
(30,269,l)
);
}
);
width = 670;
}
);
unicode = 52;
},
{
glyphname = five;
lastChange = "2026-04-03 21:13:58 +0000";
layers = (
{
layerId = m01;
shapes = (
{
closed = 1;
nodes = (
(165,534,l),
(165,414,l),
(325,414,ls),
(415,414,o),
(485,350,o),
(485,259,cs),
(485,176,o),
(426,104,o),
(341,104,cs),
(258,104,o),
(187,172,o),
(187,259,c),
(62,259,l),
(62,104,o),
(187,-16,o),
(341,-16,cs),
(496,-16,o),
(610,107,o),
(610,259,cs),
(610,417,o),
(486,534,o),
(325,534,cs)
);
},
{
closed = 1;
nodes = (
(106,414,l),
(231,414,l),
(231,850,l),
(106,850,l)
);
},
{
closed = 1;
nodes = (
(120,730,l),
(578,730,l),
(578,850,l),
(180,850,l)
);
}
);
width = 670;
}
);
unicode = 53;
},
{
glyphname = six;
lastChange = "2026-04-03 21:14:01 +0000";
layers = (
{
layerId = m01;
shapes = (
{
closed = 1;
nodes = (
(60,106,o),
(180,-16,o),
(335,-16,cs),
(484,-16,o),
(610,109,o),
(610,264,cs),
(610,425,o),
(473,544,o),
(335,544,cs),
(283,544,o),
(246,527,o),
(211,506,c),
(315,506,l),
(543,850,l),
(393,850,l),
(128,449,ls),
(90,389,o),
(60,331,o),
(60,263,cs)
);
},
{
closed = 1;
nodes = (
(185,354,o),
(250,424,o),
(335,424,cs),
(420,424,o),
(485,354,o),
(485,264,cs),
(485,174,o),
(420,104,o),
(335,104,cs),
(250,104,o),
(185,174,o),
(185,264,cs)
);
}
);
width = 670;
}
);
unicode = 54;
},
{
glyphname = seven;
lastChange = "2026-04-03 21:14:03 +0000";
layers = (
{
layerId = m01;
shapes = (
{
closed = 1;
nodes = (
(224,0,l),
(636,850,l),
(497,850,l),
(86,0,l)
);
},
{
closed = 1;
nodes = (
(576,850,l),
(79,850,l),
(79,730,l),
(516,730,l)
);
}
);
width = 670;
}
);
unicode = 55;
},
{
glyphname = eight;
lastChange = "2026-04-03 21:14:05 +0000";
layers = (
{
layerId = m01;
shapes = (
{
closed = 1;
nodes = (
(66,97,o),
(183,-16,o),
(335,-16,cs),
(488,-16,o),
(606,97,o),
(606,244,cs),
(606,391,o),
(488,504,o),
(335,504,cs),
(183,504,o),
(66,391,o),
(66,244,cs)
);
},
{
closed = 1;
nodes = (
(191,331,o),
(254,394,o),
(335,394,cs),
(417,394,o),
(481,331,o),
(481,249,cs),
(481,167,o),
(417,104,o),
(335,104,cs),
(254,104,o),
(191,167,o),
(191,249,cs)
);
},
{
closed = 1;
nodes = (
(98,508,o),
(201,408,o),
(335,408,cs),
(469,408,o),
(572,508,o),
(572,638,cs),
(572,767,o),
(469,866,o),
(335,866,cs),
(201,866,o),
(98,767,o),
(98,638,cs)
);
},
{
closed = 1;
nodes = (
(221,696,o),
(271,747,o),
(335,747,cs),
(399,747,o),
(449,696,o),
(449,630,cs),
(449,565,o),
(399,514,o),
(335,514,cs),
(271,514,o),
(221,565,o),
(221,630,cs)
);
}
);
width = 670;
}
);
unicode = 56;
},
{
glyphname = period;
lastChange = "2026-04-03 21:12:21 +0000";
layers = (
{
layerId = m01;
shapes = (
{
closed = 1;
nodes = (
(164,-12,o),
(198,21,o),
(198,64,cs),
(198,105,o),
(164,138,o),
(123,138,cs),
(82,138,o),
(48,105,o),
(48,64,cs),
(48,21,o),
(82,-12,o),
(123,-12,cs)
);
}
);
width = 250;
}
);
unicode = 46;
},
{
glyphname = comma;
lastChange = "2026-04-03 21:46:02 +0000";
layers = (
{
layerId = m01;
shapes = (
{
closed = 1;
nodes = (
(205,123,l),
(100,123,l),
(9,-154,l),
(106,-154,l)
);
}
);
width = 250;
}
);
unicode = 44;
},
{
glyphname = colon;
lastChange = "2026-04-03 21:14:58 +0000";
layers = (
{
layerId = m01;
shapes = (
{
closed = 1;
nodes = (
(191,165,o),
(225,198,o),
(225,241,cs),
(225,282,o),
(191,315,o),
(150,315,cs),
(109,315,o),
(75,282,o),
(75,241,cs),
(75,198,o),
(109,165,o),
(150,165,cs)
);
},
{
closed = 1;
nodes = (
(191,485,o),
(225,518,o),
(225,561,cs),
(225,602,o),
(191,635,o),
(150,635,cs),
(109,635,o),
(75,602,o),
(75,561,cs),
(75,518,o),
(109,485,o),
(150,485,cs)
);
}
);
width = 300;
}
);
unicode = 58;
},
{
glyphname = slash;
lastChange = "2026-04-03 22:06:15 +0000";
layers = (
{
layerId = m01;
shapes = (
{
closed = 1;
nodes = (
(70,0,l),
(128,0,l),
(530,850,l),
(472,850,l)
);
}
);
width = 600;
}
);
unicode = 47;
},
{
glyphname = hyphen;
lastChange = "2026-04-03 21:24:56 +0000";
layers = (
{
layerId = m01;
shapes = (
{
closed = 1;
nodes = (
(45,350,l),
(455,350,l),
(455,450,l),
(45,450,l)
);
}
);
width = 500;
}
);
unicode = 45;
},
{
glyphname = plus;
lastChange = "2026-04-03 21:24:48 +0000";
layers = (
{
layerId = m01;
shapes = (
{
closed = 1;
nodes = (
(45,350,l),
(455,350,l),
(455,450,l),
(45,450,l)
);
},
{
closed = 1;
nodes = (
(200,605,l),
(200,195,l),
(300,195,l),
(300,605,l)
);
}
);
width = 500;
}
);
unicode = 43;
},
{
glyphname = minus;
lastChange = "2026-04-03 21:25:00 +0000";
layers = (
{
layerId = m01;
shapes = (
{
closed = 1;
nodes = (
(45,350,l),
(455,350,l),
(455,450,l),
(45,450,l)
);
}
);
width = 500;
}
);
unicode = 8722;
},
{
glyphname = percent;
lastChange = "2026-04-03 21:28:12 +0000";
layers = (
{
layerId = m01;
shapes = (
{
closed = 1;
nodes = (
(451,500,l),
(121,0,l),
(209,0,l),
(539,500,l)
);
},
{
closed = 1;
nodes = (
(226,264,o),
(282,320,o),
(282,390,cs),
(282,460,o),
(226,516,o),
(156,516,cs),
(86,516,o),
(30,460,o),
(30,390,cs),
(30,320,o),
(86,264,o),
(156,264,cs)
);
},
{
closed = 1;
nodes = (
(126,336,o),
(103,360,o),
(103,390,cs),
(103,420,o),
(126,444,o),
(156,444,cs),
(186,444,o),
(209,420,o),
(209,390,cs),
(209,360,o),
(186,336,o),
(156,336,cs)
);
},
{
closed = 1;
nodes = (
(574,-20,o),
(630,36,o),
(630,106,cs),
(630,176,o),
(574,232,o),
(504,232,cs),
(434,232,o),
(378,176,o),
(378,106,cs),
(378,36,o),
(434,-20,o),
(504,-20,cs)
);
},
{
closed = 1;
nodes = (
(474,52,o),
(451,76,o),
(451,106,cs),
(451,136,o),
(474,160,o),
(504,160,cs),
(534,160,o),
(557,136,o),
(557,106,cs),
(557,76,o),
(534,52,o),
(504,52,cs)
);
}
